<svg data-name="Layer 1" xmlns="http://www.w3.org/2000/svg" viewBox="0 0 256 256">
    <path data-name="2" d="M137.05 256c.04-3 .46-6.98 1.99-11.38 3.37-9.68 10.05-15.32 13.21-17.66h12.8c.11-1.42.47-3.54 1.7-5.73 2.98-5.31 8.6-6.73 9.76-7H147.8v-30.55l19.8-19.09L128 18.22 88.4 164.6l19.8 19.09v30.55H79.49c1.16.27 6.78 1.69 9.76 7 1.23 2.19 1.59 4.31 1.7 5.73h12.8c3.16 2.34 9.84 7.99 13.21 17.66 1.53 4.39 1.95 8.38 1.99 11.38h18.1Z"/>
    <style>
        path { fill: #ffc800; }
    </style>
</svg>